<svg xmlns="http://www.w3.org/2000/svg" viewBox="0 0 680 620"><defs><linearGradient id="bg" x1="0" y1="0" x2="1" y2="1"><stop stop-color="#ffffff"/><stop offset="1" stop-color="#e6eff3"/></linearGradient><linearGradient id="n" x1="0" y1="0" x2="1" y2="1"><stop stop-color="#0b2341"/><stop offset="1" stop-color="#174f8f"/></linearGradient><filter id="s" x="-30%" y="-30%" width="160%" height="160%"><feDropShadow dx="0" dy="18" stdDeviation="18" flood-color="#0b2341" flood-opacity=".16"/></filter></defs><rect x="42" y="35" width="596" height="550" rx="36" fill="url(#bg)" stroke="#d6e0e7"/><path d="M80 130h520M80 230h520M80 330h520M80 430h520M180 70v480M280 70v480M380 70v480M480 70v480" stroke="#d7e1e7" stroke-width="1" opacity=".6"/><g filter="url(#s)"><rect x="125" y="110" width="205" height="130" rx="18" fill="#fff"/><rect x="350" y="86" width="205" height="178" rx="18" fill="url(#n)"/><rect x="95" y="270" width="245" height="180" rx="18" fill="#0f857d"/><rect x="360" y="290" width="225" height="150" rx="18" fill="#fff"/><rect x="250" y="470" width="190" height="72" rx="16" fill="#fff"/></g><g font-family="Arial,sans-serif"><text x="150" y="147" font-size="12" font-weight="700" fill="#16837c" letter-spacing="2">STANDARD</text><text x="150" y="182" font-size="25" font-weight="700" fill="#0b2341">현장의 기준</text><text x="150" y="207" font-size="12" fill="#718091">계약 · 안전 · 운영</text><text x="375" y="127" font-size="12" font-weight="700" fill="#66d3c9" letter-spacing="2">KSBA</text><text x="375" y="170" font-size="25" font-weight="700" fill="#fff">공간비즈니스</text><text x="375" y="202" font-size="25" font-weight="700" fill="#fff">산업 네트워크</text><text x="120" y="314" font-size="12" font-weight="700" fill="#b9f0eb" letter-spacing="2">NETWORK</text><text x="120" y="365" font-size="27" font-weight="700" fill="#fff">사업자와 공간,</text><text x="120" y="400" font-size="27" font-weight="700" fill="#fff">전문가를 연결</text><text x="387" y="329" font-size="12" font-weight="700" fill="#16837c" letter-spacing="2">TRUST</text><text x="387" y="370" font-size="24" font-weight="700" fill="#0b2341">투명한 신뢰체계</text><text x="387" y="400" font-size="12" fill="#718091">평가 · 개선 · 거래</text><text x="280" y="501" font-size="11" font-weight="700" fill="#16837c" letter-spacing="1.5">GROW TOGETHER</text><text x="280" y="524" font-size="13" fill="#0b2341">좋은 공간사업의 기준</text></g><circle cx="570" cy="505" r="26" fill="#c89a55"/><path d="M558 505h24M576 499l6 6-6 6" fill="none" stroke="#fff" stroke-width="3" stroke-linecap="round" stroke-linejoin="round"/></svg>