<svg xmlns="http://www.w3.org/2000/svg" viewBox="0 0 600 600"><defs><linearGradient id="a" x1="0" y1="0" x2="1" y2="1"><stop stop-color="#0b2341"/><stop offset="1" stop-color="#1763a5"/></linearGradient><filter id="d"><feDropShadow dx="0" dy="12" stdDeviation="12" flood-color="#0b2341" flood-opacity=".12"/></filter></defs><circle cx="300" cy="300" r="250" fill="#f2f6f8" stroke="#dce5ea"/><circle cx="300" cy="300" r="115" fill="url(#a)" filter="url(#d)"/><text x="300" y="285" text-anchor="middle" fill="#69d5cb" font-family="Arial" font-size="13" font-weight="700" letter-spacing="3">KSBA</text><text x="300" y="325" text-anchor="middle" fill="#fff" font-family="Arial" font-size="24" font-weight="700">공간비즈니스</text><g font-family="Arial" text-anchor="middle"><g><rect x="210" y="60" width="180" height="92" rx="16" fill="#fff" stroke="#cbd8e0"/><text x="300" y="99" font-size="13" font-weight="700" fill="#16837c">STANDARD</text><text x="300" y="125" font-size="17" font-weight="700" fill="#0b2341">표준·정책</text></g><g><rect x="448" y="254" width="130" height="92" rx="16" fill="#fff" stroke="#cbd8e0"/><text x="513" y="291" font-size="13" font-weight="700" fill="#16837c">TRUST</text><text x="513" y="317" font-size="17" font-weight="700" fill="#0b2341">신뢰·평가</text></g><g><rect x="210" y="448" width="180" height="92" rx="16" fill="#fff" stroke="#cbd8e0"/><text x="300" y="487" font-size="13" font-weight="700" fill="#16837c">GROWTH</text><text x="300" y="513" font-size="17" font-weight="700" fill="#0b2341">거래·성장</text></g><g><rect x="22" y="254" width="130" height="92" rx="16" fill="#fff" stroke="#cbd8e0"/><text x="87" y="291" font-size="13" font-weight="700" fill="#16837c">PEOPLE</text><text x="87" y="317" font-size="17" font-weight="700" fill="#0b2341">교육·인력</text></g></g><path d="M300 152v32M448 300h-33M300 448v-33M152 300h33" stroke="#16837c" stroke-width="3" stroke-linecap="round"/><circle cx="300" cy="180" r="5" fill="#c89a55"/><circle cx="420" cy="300" r="5" fill="#c89a55"/><circle cx="300" cy="420" r="5" fill="#c89a55"/><circle cx="180" cy="300" r="5" fill="#c89a55"/></svg>